# xmcd
#
# Track frame offsets: 
#        150
#        26460
#        42718
#        69632
#        86797
#        115342
#        141557
#        163748
#        200790
#        220319
#
# Disc length: 3234 seconds
#
# Revision: 0
# Processed by: cddbd v1.5.1PL0 Copyright (c) Steve Scherf et al.
# Submitted via: ExactAudioCopy v0.95a2
#
DISCID=a20ca00a
DTITLE=Tutu Jones - Live
DYEAR=2005
DGENRE=Blues
TTITLE0=Sunday Morning Love
TTITLE1=Goin' Down
TTITLE2=Have You Ever Loved A Woman
TTITLE3=Sweet Woman
TTITLE4=The Milkman Game
TTITLE5=My Girl
TTITLE6=Shake What Your Mama Gave You
TTITLE7=Little Blue Bird
TTITLE8=Teenie Weenie
TTITLE9=The Sky Is Crying
EXTD=
EXTT0=
EXTT1=
EXTT2=
EXTT3=
EXTT4=
EXTT5=
EXTT6=
EXTT7=
EXTT8=
EXTT9=
PLAYORDER=
